<svg viewBox="0 0 200 200" xmlns="http://www.w3.org/2000/svg">
  <!-- AI/Neural Network Pattern -->
  <defs>
    <linearGradient id="aiGradient" x1="0%" y1="0%" x2="100%" y2="100%">
      <stop offset="0%" stop-color="#00d4ff" stop-opacity="0.7"/>
      <stop offset="100%" stop-color="#00d4ff" stop-opacity="0.1"/>
    </linearGradient>
    <filter id="aiGlow" x="-20%" y="-20%" width="140%" height="140%">
      <feGaussianBlur stdDeviation="1.5" result="blur"/>
      <feComposite in="SourceGraphic" in2="blur" operator="over"/>
    </filter>
  </defs>
  
  <!-- Neural Network Nodes -->
  <!-- Input Layer -->
  <circle cx="40" cy="60" r="5" fill="#00d4ff" opacity="0.8"/>
  <circle cx="40" cy="100" r="5" fill="#00d4ff" opacity="0.8"/>
  <circle cx="40" cy="140" r="5" fill="#00d4ff" opacity="0.8"/>
  
  <!-- Hidden Layer -->
  <circle cx="100" cy="40" r="5" fill="#00d4ff" opacity="0.8"/>
  <circle cx="100" cy="80" r="5" fill="#00d4ff" opacity="0.8"/>
  <circle cx="100" cy="120" r="5" fill="#00d4ff" opacity="0.8"/>
  <circle cx="100" cy="160" r="5" fill="#00d4ff" opacity="0.8"/>
  
  <!-- Output Layer -->
  <circle cx="160" cy="70" r="5" fill="#00d4ff" opacity="0.8"/>
  <circle cx="160" cy="130" r="5" fill="#00d4ff" opacity="0.8"/>
  
  <!-- Neural Connections -->
  <!-- Input to Hidden Connections -->
  <path d="M40,60 L100,40 M40,60 L100,80 M40,60 L100,120 M40,60 L100,160" stroke="#00d4ff" stroke-width="0.8" opacity="0.4"/>
  <path d="M40,100 L100,40 M40,100 L100,80 M40,100 L100,120 M40,100 L100,160" stroke="#00d4ff" stroke-width="0.8" opacity="0.4"/>
  <path d="M40,140 L100,40 M40,140 L100,80 M40,140 L100,120 M40,140 L100,160" stroke="#00d4ff" stroke-width="0.8" opacity="0.4"/>
  
  <!-- Hidden to Output Connections -->
  <path d="M100,40 L160,70 M100,40 L160,130" stroke="#00d4ff" stroke-width="0.8" opacity="0.4"/>
  <path d="M100,80 L160,70 M100,80 L160,130" stroke="#00d4ff" stroke-width="0.8" opacity="0.4"/>
  <path d="M100,120 L160,70 M100,120 L160,130" stroke="#00d4ff" stroke-width="0.8" opacity="0.4"/>
  <path d="M100,160 L160,70 M100,160 L160,130" stroke="#00d4ff" stroke-width="0.8" opacity="0.4"/>
  
  <!-- Active Nodes (Highlighted) -->
  <circle cx="40" cy="100" r="7" fill="#00d4ff" opacity="0.3" filter="url(#aiGlow)"/>
  <circle cx="100" cy="80" r="7" fill="#00d4ff" opacity="0.3" filter="url(#aiGlow)"/>
  <circle cx="160" cy="70" r="7" fill="#00d4ff" opacity="0.3" filter="url(#aiGlow)"/>
  
  <!-- Central Brain Element -->
  <circle cx="100" cy="100" r="25" fill="none" stroke="#00d4ff" stroke-width="1" opacity="0.5" stroke-dasharray="3,2"/>
  <path d="M85,100 C85,92 115,92 115,100 C115,108 85,108 85,100 Z" fill="#00d4ff" opacity="0.2"/>
  <path d="M100,85 C108,85 108,115 100,115 C92,115 92,85 100,85 Z" fill="#00d4ff" opacity="0.2"/>
</svg>