<svg viewBox="0 0 200 200" xmlns="http://www.w3.org/2000/svg">
  <!-- Data Flow Pattern -->
  <defs>
    <linearGradient id="gradient2" x1="0%" y1="0%" x2="100%" y2="100%">
      <stop offset="0%" stop-color="#00d4ff" stop-opacity="0.7"/>
      <stop offset="100%" stop-color="#00d4ff" stop-opacity="0.1"/>
    </linearGradient>
    <filter id="glow" x="-20%" y="-20%" width="140%" height="140%">
      <feGaussianBlur stdDeviation="2" result="blur"/>
      <feComposite in="SourceGraphic" in2="blur" operator="over"/>
    </filter>
  </defs>
  
  <!-- Flow Paths -->
  <path d="M20,60 C60,20 140,20 180,60 C140,100 60,100 20,60 Z" fill="url(#gradient2)" opacity="0.4"/>
  <path d="M20,140 C60,100 140,100 180,140 C140,180 60,180 20,140 Z" fill="url(#gradient2)" opacity="0.4"/>
  
  <!-- Connection Nodes -->
  <circle cx="20" cy="60" r="6" fill="#00d4ff" filter="url(#glow)"/>
  <circle cx="180" cy="60" r="6" fill="#00d4ff" filter="url(#glow)"/>
  <circle cx="20" cy="140" r="6" fill="#00d4ff" filter="url(#glow)"/>
  <circle cx="180" cy="140" r="6" fill="#00d4ff" filter="url(#glow)"/>
  
  <!-- Central Hub -->
  <circle cx="100" cy="100" r="15" fill="#00d4ff" opacity="0.2"/>
  <circle cx="100" cy="100" r="8" fill="#00d4ff" opacity="0.5"/>
  
  <!-- Data Streams -->
  <path d="M20,60 L100,100 L180,60" stroke="#00d4ff" stroke-width="1.5" fill="none" stroke-dasharray="4,2"/>
  <path d="M20,140 L100,100 L180,140" stroke="#00d4ff" stroke-width="1.5" fill="none" stroke-dasharray="4,2"/>
  
  <!-- Pulse Animations (Static Representation) -->
  <circle cx="60" cy="80" r="3" fill="#00d4ff" opacity="0.8"/>
  <circle cx="140" cy="80" r="3" fill="#00d4ff" opacity="0.8"/>
  <circle cx="60" cy="120" r="3" fill="#00d4ff" opacity="0.8"/>
  <circle cx="140" cy="120" r="3" fill="#00d4ff" opacity="0.8"/>
  
  <!-- Decorative Elements -->
  <path d="M0,100 L200,100 M100,0 L100,200" stroke="#00d4ff" stroke-width="0.3" opacity="0.3"/>
</svg>