<svg viewBox="0 0 200 200" xmlns="http://www.w3.org/2000/svg">
  <!-- Circuit Board Pattern -->
  <defs>
    <linearGradient id="gradient1" x1="0%" y1="0%" x2="100%" y2="100%">
      <stop offset="0%" stop-color="#00d4ff" stop-opacity="0.8"/>
      <stop offset="100%" stop-color="#00d4ff" stop-opacity="0.2"/>
    </linearGradient>
  </defs>
  
  <!-- Background Grid -->
  <path d="M0,40 L200,40 M0,80 L200,80 M0,120 L200,120 M0,160 L200,160 M40,0 L40,200 M80,0 L80,200 M120,0 L120,200 M160,0 L160,200" stroke="#00d4ff" stroke-width="0.5" stroke-opacity="0.2"/>
  
  <!-- Main Circuit Elements -->
  <circle cx="40" cy="40" r="5" fill="#00d4ff" opacity="0.6"/>
  <circle cx="160" cy="40" r="5" fill="#00d4ff" opacity="0.6"/>
  <circle cx="40" cy="160" r="5" fill="#00d4ff" opacity="0.6"/>
  <circle cx="160" cy="160" r="5" fill="#00d4ff" opacity="0.6"/>
  
  <!-- Connection Lines -->
  <path d="M40,40 L80,40 L80,80 L120,80 L120,120 L160,120 L160,160" stroke="#00d4ff" stroke-width="2" fill="none" stroke-linecap="round" stroke-linejoin="round"/>
  
  <!-- Central Element -->
  <rect x="90" y="90" width="20" height="20" fill="url(#gradient1)" rx="2" ry="2"/>
  
  <!-- Decorative Elements -->
  <circle cx="100" cy="100" r="30" stroke="#00d4ff" stroke-width="1" fill="none" stroke-dasharray="3,3"/>
  <circle cx="100" cy="100" r="50" stroke="#00d4ff" stroke-width="0.5" fill="none" stroke-dasharray="2,4"/>
  
  <!-- Data Points -->
  <circle cx="80" cy="40" r="3" fill="#00d4ff"/>
  <circle cx="120" cy="80" r="3" fill="#00d4ff"/>
  <circle cx="160" cy="120" r="3" fill="#00d4ff"/>
  <circle cx="80" cy="160" r="3" fill="#00d4ff"/>
</svg>